<svg xmlns="http://www.w3.org/2000/svg" viewBox="0 0 400 400" role="img" aria-label="Abstract portrait illustration">
  <defs>
    <linearGradient id="skin" x1="0" x2="0" y1="0" y2="1">
      <stop offset="0%" stop-color="#FBE9E7"/>
      <stop offset="100%" stop-color="#F5D0C8"/>
    </linearGradient>
    <linearGradient id="shirt" x1="0" x2="1" y1="0" y2="1">
      <stop offset="0%" stop-color="#F3F4F6"/>
      <stop offset="100%" stop-color="#E5E7EB"/>
    </linearGradient>
    <linearGradient id="hair" x1="0" x2="1" y1="0" y2="1">
      <stop offset="0%" stop-color="#424242"/>
      <stop offset="100%" stop-color="#212121"/>
    </linearGradient>
  </defs>
  <rect width="400" height="400" rx="200" fill="#FFFFFF"/>
  <g transform="translate(50,40)">
    <circle cx="150" cy="120" r="70" fill="url(#skin)"/>
    <path d="M70 260c0-44 36-80 80-80s80 36 80 80v20H70v-20z" fill="url(#shirt)"/>
    <path d="M80 120c0-55 120-70 160-10 10 16 8 30 4 44-2 6-4 8-6 8-5 0-10-10-16-18-10-12-26-22-52-22-28 0-44 10-56 22-8 8-14 18-20 18-6 0-14-24-14-42z" fill="url(#hair)"/>
    <circle cx="130" cy="120" r="6" fill="#444"/>
    <circle cx="170" cy="120" r="6" fill="#444"/>
    <path d="M130 150c12 10 28 10 40 0" stroke="#B45309" stroke-width="3" fill="none" stroke-linecap="round"/>
  </g>
</svg>

